# xmcd
#
# Track frame offsets:
#	150
#	11687
#	27842
#	42330
#	57402
#	64222
#	79677
#	94732
#	106812
#	118442
#	130800
#	145562
#
# Disc length: 2138 seconds
#
# Revision: 0
# Processed by: cddbd v1.5.2PL0 Copyright (c) Steve Scherf et al.
# Submitted via: EasyCDDAExtractor 9.1.3.1
#
DISCID=a008580c
DTITLE=Tibagi e Miltinho - GRANDES SUCESSOS
DYEAR=1989
DGENRE=Country
TTITLE0=Teu adeus
TTITLE1=Pombinha branca
TTITLE2=A saudade é meu castigo
TTITLE3=Noite triste
TTITLE4=Um pouquinho de amor
TTITLE5=Pranto amargo
TTITLE6=Uma lágrima
TTITLE7=Velhos amigos
TTITLE8=O apito do trem
TTITLE9=Segue teu caminho
TTITLE10=Teu castigo
TTITLE11=Taça vazia
EXTD=
EXTT0=
EXTT1=
EXTT2=
EXTT3=
EXTT4=
EXTT5=
EXTT6=
EXTT7=
EXTT8=
EXTT9=
EXTT10=
EXTT11=
PLAYORDER=
